<?xml version="1.0" encoding="UTF-8"?>
<!DOCTYPE svg PUBLIC "-//W3C//DTD SVG 1.0//EN" "http://www.w3.org/TR/2001/REC-SVG-20010904/DTD/svg10.dtd">
<!-- Creator: CorelDRAW 2018 (64-Bit) -->
<svg xmlns="http://www.w3.org/2000/svg" xml:space="preserve" width="15in" height="8.5in" version="1.0" style="shape-rendering:geometricPrecision; text-rendering:geometricPrecision; image-rendering:optimizeQuality; fill-rule:evenodd; clip-rule:evenodd"
viewBox="0 0 15000 8500"
 xmlns:xlink="http://www.w3.org/1999/xlink">
 <defs>
  <style type="text/css">
   <![CDATA[
    .str2 {stroke:red;stroke-width:3;stroke-miterlimit:2.61313}
    .str1 {stroke:red;stroke-width:2.25;stroke-miterlimit:4}
    .str0 {stroke:red;stroke-width:3;stroke-miterlimit:4}
    .fil1 {fill:none}
    .fil0 {fill:none;fill-rule:nonzero}
   ]]>
  </style>
 </defs>
 <g id="Layer_x0020_1">
  <metadata id="CorelCorpID_0Corel-Layer"/>
  <g id="_1575975654656">
   <g>
    <path class="fil0 str0" d="M9192.85 1838.17c-46.89,0 -85.51,38.33 -85.51,85.5 0,46.89 38.63,85.5 85.51,85.5 47.15,0 85.5,-38.61 85.5,-85.5 0,-47.17 -38.35,-85.5 -85.5,-85.5zm0 0z"/>
    <path class="fil0 str0" d="M14270.99 2016.85c-46.94,0 -85.35,38.41 -85.35,85.35 0,47.17 38.41,85.65 85.35,85.65 47.24,0 85.65,-38.48 85.65,-85.65 0,-46.94 -38.41,-85.35 -85.65,-85.35zm0 0z"/>
    <path class="fil0 str0" d="M14270.99 6518.98c-46.94,0 -85.35,38.48 -85.35,85.5 0,47.02 38.41,85.49 85.35,85.49 47.24,0 85.65,-38.48 85.65,-85.49 0,-47.02 -38.41,-85.5 -85.65,-85.5zm0 0z"/>
    <path class="fil0 str0" d="M9192.85 6519.06c-46.89,0 -85.51,38.41 -85.51,85.43 0,46.94 38.63,85.42 85.51,85.42 47.15,0 85.5,-38.48 85.5,-85.42 0,-47.02 -38.35,-85.43 -85.5,-85.43zm0 0z"/>
    <path class="fil0 str0" d="M3973.93 6518.98c-46.94,0 -85.35,38.48 -85.35,85.5 0,47.02 38.41,85.49 85.35,85.49 47.17,0 85.65,-38.48 85.65,-85.49 0,-47.02 -38.48,-85.5 -85.65,-85.5zm0 0z"/>
    <path class="fil0 str0" d="M527.92 6518.98c-47.03,0 -85.51,38.48 -85.51,85.5 0,47.02 38.48,85.49 85.51,85.49 47.02,0 85.43,-38.48 85.43,-85.49 0,-47.02 -38.41,-85.5 -85.43,-85.5zm0 0z"/>
    <path class="fil0 str0" d="M527.92 2016.85c-47.03,0 -85.51,38.48 -85.51,85.35 0,47.17 38.48,85.57 85.51,85.57 47.02,0 85.43,-38.4 85.43,-85.57 0,-46.87 -38.41,-85.35 -85.43,-85.35zm0 0z"/>
    <path class="fil0 str0" d="M4074.98 1838.03c-47.15,0 -85.57,38.48 -85.57,85.65 0,46.94 38.43,85.57 85.57,85.57 46.96,0 85.44,-38.63 85.44,-85.57 0,-47.17 -38.48,-85.65 -85.44,-85.65zm0 0z"/>
    <path class="fil0 str1" d="M6347.65 6801.31c27.56,0 50.05,-22.5 50.05,-49.98m522.49 49.98c-27.56,0 -50.06,-22.5 -50.06,-49.98m-49.98 -343.68c27.48,0 49.98,22.5 49.98,49.98m-422.45 -49.98c-27.48,0 -49.98,22.5 -49.98,49.98m0 293.7l0 -293.7m472.44 0l0 293.7m7519.13 49.98c43.46,0 78.78,-35.24 78.78,-78.7m0 -4738.38c0,-43.48 -35.32,-78.78 -78.78,-78.78l-4115.14 0 -3246.44 -669.26m-787.53 0l-3246.37 669.26 -2583.99 0c-43.56,0 -78.78,35.3 -78.78,78.78l0 4738.38c0,43.46 35.22,78.7 78.78,78.7"/>
    <path class="fil0 str0" d="M2337.99 5890.3c43.46,0 78.7,-35.22 78.7,-78.7 0,-70.17 -84.77,-105.24 -134.41,-55.68 -49.63,49.61 -14.46,134.39 55.7,134.39zm0 0z"/>
    <path class="fil0 str0" d="M12461.07 5890.3c-43.48,0 -78.78,-35.22 -78.78,-78.7 0,-70.17 84.85,-105.24 134.48,-55.68 49.54,49.61 14.46,134.39 -55.7,134.39zm0 0z"/>
    <path class="fil0 str0" d="M7645.06 6297.04c27.57,0 50,-22.35 50,-49.98 0,-44.56 -53.89,-66.83 -85.37,-35.37 -31.54,31.46 -9.19,85.35 35.37,85.35zm0 0z"/>
    <line class="fil0 str0" x1="7027.69" y1="1236.19" x2="6240.15" y2= "1236.19" />
    <line class="fil0 str0" x1="409.8" y1="6801.31" x2="6347.65" y2= "6801.31" />
    <line class="fil0 str0" x1="6920.19" y1="6801.31" x2="14389.27" y2= "6801.31" />
    <line class="fil0 str0" x1="14468.04" y1="6722.61" x2="14468.04" y2= "1984.23" />
   </g>
   <polyline class="fil1 str2" points="6443.94,6407.8 6443.94,6076.28 6823.91,6076.28 6823.91,6407.8 "/>
  </g>
 </g>
</svg>
