<?xml version="1.0" encoding="UTF-8"?>
<!DOCTYPE svg PUBLIC "-//W3C//DTD SVG 1.0//EN" "http://www.w3.org/TR/2001/REC-SVG-20010904/DTD/svg10.dtd">
<!-- Creator: CorelDRAW 2018 (64-Bit) -->
<svg xmlns="http://www.w3.org/2000/svg" xml:space="preserve" width="15in" height="8.5in" version="1.0" style="shape-rendering:geometricPrecision; text-rendering:geometricPrecision; image-rendering:optimizeQuality; fill-rule:evenodd; clip-rule:evenodd"
viewBox="0 0 15000 8500"
 xmlns:xlink="http://www.w3.org/1999/xlink">
 <defs>
  <style type="text/css">
   <![CDATA[
    .str2 {stroke:red;stroke-width:3;stroke-linejoin:bevel;stroke-miterlimit:2.61313}
    .str0 {stroke:red;stroke-width:3;stroke-miterlimit:4}
    .str1 {stroke:red;stroke-width:3;stroke-miterlimit:4}
    .str3 {stroke:red;stroke-width:3;stroke-linecap:round;stroke-miterlimit:4}
    .fil1 {fill:none}
    .fil0 {fill:none;fill-rule:nonzero}
   ]]>
  </style>
 </defs>
 <g id="Layer_x0020_1">
  <metadata id="CorelCorpID_0Corel-Layer"/>
  <g id="_1576115577456">
   <g>
    <g>
     <path class="fil0 str0" d="M14427.38 1550.76c43.46,0 78.78,35.3 78.78,78.78m0 4738.31c0,43.53 -35.32,78.77 -78.78,78.77l-4115.14 0 -2501.76 515.82m-745.63 153.5l-786.52 0 -3246.44 -669.32 -2583.99 0c-43.48,0 -78.7,-35.24 -78.7,-78.77l0 -4738.31c0,-43.48 35.22,-78.78 78.7,-78.78"/>
     <path class="fil0 str1" d="M7033.75 4363.04l8.18 38.56 -30.83 6.52 23.37 109.72 30.82 -6.5 49.48 232.99 -30.74 6.5 23.3 109.73 30.81 -6.5 8.17 38.48 529.5 -112.55 -8.17 -38.5 30.81 -6.58 -23.37 -109.73 -30.81 6.59 -49.48 -232.99 30.81 -6.59 -23.37 -109.74 -30.81 6.59 -8.17 -38.55 -529.5 112.55zm0 0z"/>
     <path class="fil0 str1" d="M5943.57 4285.13l-8.17 38.48 30.81 6.59 -23.37 109.72 -30.81 -6.58 -49.48 233 30.81 6.57 -23.37 109.74 -30.81 -6.58 -8.17 38.56 -529.5 -112.55 8.19 -38.5 -30.81 -6.57 23.35 -109.74 30.81 6.52 49.48 -232.92 -30.81 -6.59 23.37 -109.74 30.81 6.52 8.17 -38.48 529.5 112.55zm0 0z"/>
     <path class="fil0 str1" d="M462.08 6249.79l25.98 -45 26.04 -45 103.87 0 51.94 90 -51.94 89.98 -103.87 0 -26.04 -45 -25.98 -44.98zm0 0z"/>
     <path class="fil0 str1" d="M4009.16 6428.45l51.94 -89.98 103.94 0 51.94 89.98 -51.94 89.98 -103.94 0 -51.94 -89.98zm0 0z"/>
     <path class="fil0 str1" d="M462.08 1747.66l25.98 -45 26.04 -45 103.87 0 51.94 90 -51.94 89.98 -103.87 0 -26.04 -45 -25.98 -44.98zm0 0z"/>
     <path class="fil0 str1" d="M3908.25 1747.66l51.94 -90 103.94 0 51.94 90 -51.94 89.98 -103.94 0 -51.94 -89.98zm0 0z"/>
     <path class="fil0 str1" d="M14205.44 1747.66l51.94 -90 103.94 0 51.94 90 -51.94 89.98 -103.94 0 -51.94 -89.98zm0 0z"/>
     <path class="fil0 str1" d="M9127.16 1747.66l26.04 -45 25.98 -45 103.87 0 26.04 45 25.98 45 -25.98 44.98 -26.04 45 -103.87 0 -25.98 -45 -26.04 -44.98zm0 0z"/>
     <path class="fil0 str1" d="M14205.44 6249.79l51.94 -90 103.94 0 51.94 90 -51.94 89.98 -103.94 0 -51.94 -89.98zm0 0z"/>
     <path class="fil0 str1" d="M9127.16 6428.45l26.04 -45 25.98 -44.98 103.87 0 26.04 44.98 25.98 45 -25.98 45 -26.04 44.98 -103.87 0 -25.98 -44.98 -26.04 -45zm0 0z"/>
     <line class="fil0 str1" x1="7810.49" y1="6962.44" x2="7064.86" y2= "7115.94" />
     <line class="fil0 str1" x1="14506.16" y1="6367.84" x2="14506.16" y2= "1629.54" />
     <rect class="fil1 str2" x="13435.29" y="5407.22" width="604.28" height="541.36" rx="33.49" ry="30"/>
     <rect class="fil1 str2" x="12685.31" y="5407.22" width="604.28" height="541.36" rx="33.49" ry="30"/>
     <rect class="fil1 str2" x="11935.33" y="5407.22" width="604.28" height="541.36" rx="33.49" ry="30"/>
     <rect class="fil1 str2" x="10904.06" y="5219.76" width="604.28" height="541.36" rx="33.49" ry="30"/>
     <rect class="fil1 str2" x="12685.31" y="4657.24" width="604.28" height="541.36" rx="33.49" ry="30"/>
     <rect class="fil1 str2" x="11466.52" y="4469.78" width="604.28" height="541.36" rx="33.49" ry="30"/>
     <rect class="fil1 str2" x="10435.37" y="4469.78" width="604.28" height="541.36" rx="33.49" ry="30"/>
     <rect class="fil1 str2" x="13435.29" y="3532.3" width="604.28" height="541.36" rx="33.49" ry="30"/>
     <rect class="fil1 str2" x="13267.21" y="2782.32" width="604.28" height="541.36" rx="33.49" ry="30"/>
     <rect class="fil1 str2" x="13102.9" y="2032.34" width="604.28" height="541.36" rx="33.49" ry="30"/>
     <rect class="fil1 str2" x="12142.24" y="2969.82" width="604.28" height="541.36" rx="33.49" ry="30"/>
     <rect class="fil1 str2" x="11204.45" y="2969.82" width="604.28" height="541.36" rx="33.49" ry="30"/>
     <rect class="fil1 str2" x="10665.46" y="2219.84" width="604.28" height="541.36" rx="33.49" ry="30"/>
     <rect class="fil1 str2" x="10810.36" y="3719.8" width="604.28" height="541.36" rx="33.49" ry="30"/>
     <rect class="fil1 str2" x="10060.38" y="3719.8" width="604.28" height="541.36" rx="33.49" ry="30"/>
     <rect class="fil1 str2" x="10454.47" y="2969.82" width="604.28" height="541.36" rx="33.49" ry="30"/>
     <rect class="fil1 str2" x="9915.48" y="2160.77" width="604.28" height="541.36" rx="33.49" ry="30"/>
     <rect class="fil1 str2" x="2823.94" y="2160.77" width="604.28" height="541.36" rx="33.49" ry="30"/>
     <rect class="fil1 str2" x="2073.95" y="2219.84" width="604.28" height="541.36" rx="33.49" ry="30"/>
     <rect class="fil1 str2" x="1323.97" y="2219.84" width="604.28" height="541.36" rx="33.49" ry="30"/>
     <rect class="fil1 str2" x="1347.63" y="2969.82" width="604.28" height="541.36" rx="33.49" ry="30"/>
     <rect class="fil1 str2" x="2284.99" y="2969.82" width="604.28" height="541.36" rx="33.49" ry="30"/>
     <rect class="fil1 str2" x="2312.52" y="3719.8" width="604.28" height="541.36" rx="33.49" ry="30"/>
     <rect class="fil1 str2" x="1093.81" y="3719.79" width="791.77" height="541.36" rx="43.88" ry="30"/>
     <rect class="fil1 str2" x="2523.17" y="4469.78" width="604.28" height="541.36" rx="33.49" ry="30"/>
     <rect class="fil1 str2" x="1866.93" y="5221.74" width="604.28" height="541.36" rx="33.49" ry="30"/>
     <rect class="fil1 str2" x="929.46" y="5221.74" width="698.04" height="541.36" rx="38.68" ry="30"/>
     <rect class="fil1 str2" transform="matrix(-1.09199 0.232111 -0.207912 -0.978148 8779.44 5312.13)" width="541.28" height="541.36" rx="30" ry="30"/>
     <rect class="fil1 str2" transform="matrix(-1.09199 0.232111 -0.207912 -0.978148 8045.84 5468.06)" width="541.28" height="541.36" rx="30" ry="30"/>
     <rect class="fil1 str2" transform="matrix(-1.09199 0.232111 -0.207912 -0.978148 7312.25 5623.99)" width="541.28" height="541.36" rx="30" ry="30"/>
     <rect class="fil1 str2" transform="matrix(-1.09199 0.232111 -0.207912 -0.978148 10246.7 5000.34)" width="541.28" height="541.36" rx="30" ry="30"/>
     <rect class="fil1 str2" transform="matrix(-1.09199 0.232111 -0.207912 -0.978148 9513.11 5156.27)" width="541.28" height="541.36" rx="30" ry="30"/>
     <rect class="fil1 str2" transform="matrix(-1.09199 0.232111 -0.207912 -0.978148 10035.9 5811.84)" width="541.28" height="541.36" rx="30" ry="30"/>
     <rect class="fil1 str2" transform="matrix(-1.09199 0.232111 -0.207912 -0.978148 8440.11 4617.46)" width="541.28" height="541.36" rx="30" ry="30"/>
     <rect class="fil1 str2" transform="matrix(-1.09199 0.232111 -0.207912 -0.978148 9907.38 4305.66)" width="541.28" height="541.36" rx="30" ry="30"/>
     <rect class="fil1 str2" transform="matrix(-1.09199 0.232111 -0.207912 -0.978148 9173.79 4461.59)" width="541.28" height="541.36" rx="30" ry="30"/>
     <rect class="fil1 str2" transform="matrix(-1.09199 0.232111 -0.207912 -0.978148 8834.42 3766.96)" width="541.28" height="541.36" rx="30" ry="30"/>
     <rect class="fil1 str2" transform="matrix(-1.09199 0.232111 -0.207912 -0.978148 8100.82 3922.89)" width="541.28" height="541.36" rx="30" ry="30"/>
     <rect class="fil1 str2" transform="matrix(-1.09199 0.232111 -0.207912 -0.978148 7367.23 4078.82)" width="541.28" height="541.36" rx="30" ry="30"/>
     <rect class="fil1 str2" transform="matrix(-1.09199 0.232111 -0.207912 -0.978148 10301.7 3455.16)" width="541.28" height="541.36" rx="30" ry="30"/>
     <rect class="fil1 str2" transform="matrix(-1.09199 0.232111 -0.207912 -0.978148 9568.09 3611.09)" width="541.28" height="541.36" rx="30" ry="30"/>
     <rect class="fil1 str2" transform="matrix(-1.09199 0.232111 -0.207912 -0.978148 8311.69 3111.35)" width="541.28" height="541.36" rx="30" ry="30"/>
     <rect class="fil1 str2" transform="matrix(-1.09199 0.232111 -0.207912 -0.978148 7578.09 3267.28)" width="541.28" height="541.36" rx="30" ry="30"/>
     <rect class="fil1 str2" transform="matrix(-1.09199 0.232111 -0.207912 -0.978148 9778.96 2799.55)" width="541.28" height="541.36" rx="30" ry="30"/>
     <rect class="fil1 str2" transform="matrix(-1.09199 0.232111 -0.207912 -0.978148 9045.36 2955.48)" width="541.28" height="541.36" rx="30" ry="30"/>
     <rect class="fil1 str2" transform="matrix(1.09199 0.232111 0.207912 -0.978148 5032.42 3111.38)" width="541.28" height="541.36" rx="30" ry="30"/>
     <rect class="fil1 str2" transform="matrix(1.09199 0.232111 0.207912 -0.978148 5766.01 3267.31)" width="541.28" height="541.36" rx="30" ry="30"/>
     <rect class="fil1 str2" transform="matrix(1.09199 0.232111 0.207912 -0.978148 3565.14 2799.58)" width="541.28" height="541.36" rx="30" ry="30"/>
     <rect class="fil1 str2" transform="matrix(1.09199 0.232111 0.207912 -0.978148 4298.74 2955.51)" width="541.28" height="541.36" rx="30" ry="30"/>
     <rect class="fil1 str2" transform="matrix(1.09199 0.232111 0.207912 -0.978148 4509.64 3767.05)" width="541.28" height="541.36" rx="30" ry="30"/>
     <rect class="fil1 str2" transform="matrix(1.09199 0.232111 0.207912 -0.978148 5243.24 3922.98)" width="541.28" height="541.36" rx="30" ry="30"/>
     <rect class="fil1 str2" transform="matrix(1.09199 0.232111 0.207912 -0.978148 3042.37 3455.25)" width="541.28" height="541.36" rx="30" ry="30"/>
     <rect class="fil1 str2" transform="matrix(1.09199 0.232111 0.207912 -0.978148 3775.96 3611.18)" width="541.28" height="541.36" rx="30" ry="30"/>
     <rect class="fil1 str2" transform="matrix(1.09199 0.232111 0.207912 -0.978148 4537.13 4539.6)" width="541.28" height="541.36" rx="30" ry="30"/>
     <rect class="fil1 str2" transform="matrix(1.09199 0.232111 0.207912 -0.978148 3069.86 4227.81)" width="541.28" height="541.36" rx="30" ry="30"/>
     <rect class="fil1 str2" transform="matrix(1.09199 0.232111 0.207912 -0.978148 3803.46 4383.74)" width="541.28" height="541.36" rx="30" ry="30"/>
     <rect class="fil1 str2" transform="matrix(1.09199 0.232111 0.207912 -0.978148 4747.95 5351.14)" width="541.28" height="541.36" rx="30" ry="30"/>
     <rect class="fil1 str2" transform="matrix(1.09199 0.232111 0.207912 -0.978148 5481.55 5507.07)" width="541.28" height="541.36" rx="30" ry="30"/>
     <rect class="fil1 str2" transform="matrix(1.09199 0.232111 0.207912 -0.978148 3280.68 5039.35)" width="541.28" height="541.36" rx="30" ry="30"/>
     <rect class="fil1 str2" transform="matrix(1.09199 0.232111 0.207912 -0.978148 4014.27 5195.28)" width="541.28" height="541.36" rx="30" ry="30"/>
     <rect class="fil1 str2" transform="matrix(1.09199 0.232111 0.207912 -0.978148 5692.45 6318.63)" width="541.28" height="541.36" rx="30" ry="30"/>
     <rect class="fil1 str2" transform="matrix(1.09199 0.232111 0.207912 -0.978148 3308.25 5811.88)" width="541.28" height="541.36" rx="30" ry="30"/>
     <path class="fil1 str2" d="M11958.98 3579.84l-195.56 0c-22,0 -40,18 -40,40l0 691.65m275.55 0.67c0,-0.22 0,-0.44 0,-0.67l0 -48.43m664.48 0l0 48.43m275.55 0.67c0,-0.22 0,-0.44 0,-0.67l0 -691.65c0,-22 -18,-40 -40,-40l-195.56 0m-40 683.22l-664.48 0"/>
     <path class="fil1 str2" d="M1234.34 5144.63l-195.56 0c-22,0 -40,-18 -40,-40l0 -691.65m275.55 -0.67c0,0.22 0,0.44 0,0.67l0 48.43m664.48 0l0 -48.43m275.55 -0.67c0,0.22 0,0.44 0,0.67l0 691.65c0,22 -18,40 -40,40l-195.56 0m-40 -683.22l-664.48 0"/>
     <path class="fil1 str2" d="M4665.13 5403.8l-191.3 -40.66c-21.52,-4.57 -42.86,9.29 -47.44,30.81l-143.8 676.54c-0.05,0.22 -0.09,0.43 -0.13,0.65m269.67 56.64l10.07 -47.37m649.96 138.15l-10.07 47.37c-0.06,0.3 -0.13,0.61 -0.19,0.91m269.72 56.38l143.8 -676.54c4.57,-21.52 -9.29,-42.87 -30.81,-47.44l-191.29 -40.66m-181.17 659.98l-649.96 -138.15"/>
     <path class="fil1 str2" d="M8403.34 5462.36l191.29 -40.66c21.52,-4.57 42.87,9.29 47.44,30.81l143.8 676.54m-269.39 57.93c-0.05,-0.21 -0.1,-0.43 -0.14,-0.64l-10.07 -47.37m-649.96 138.15l10.07 47.37m-269.39 57.93c-0.05,-0.21 -0.1,-0.43 -0.14,-0.64l-143.8 -676.54c-4.57,-21.52 9.29,-42.87 30.8,-47.44l191.3 -40.66m181.17 659.98l649.96 -138.15"/>
     <path class="fil0 str3" d="M11484.77 2852.74l0 0.67c0,0.28 0,0.57 0.01,0.85m-0.01 -644.57c-23,-2.01 -42.8,16.11 -42.8,39.22l0 472.44c0,23.11 19.8,41.24 42.8,39.22m1215.56 0c23.06,2.02 42.86,-16.11 42.86,-39.22l0 -472.44c0,-23.11 -19.81,-41.24 -42.86,-39.22m-0.01 644.57c0,-0.28 0.01,-0.56 0.01,-0.85l0 -0.67m-980.02 40l-195.56 0c-22,0 -40,-18 -40,-40l0 -92.17m0 -550.89l0 -48.6m275.55 -0.67c0,0.22 0,0.44 0,0.67l0 48.43m664.48 0l0 -48.43m275.55 -0.67c0,0.22 0,0.44 0,0.67l0 48.6m0 550.89l0 92.17c0,22 -18,40 -40,40l-195.56 0m-40 -683.22l-664.48 0"/>
    </g>
    <path class="fil0 str2" d="M958.91 2687.34l-180 0m0 -121.07l180 0m-180 121.07c-33.43,0 -60.54,-27.1 -60.54,-60.54 0,-33.43 27.1,-60.54 60.54,-60.54m180 121.07c33.43,0 60.54,-27.1 60.54,-60.54 0,-33.43 -27.1,-60.54 -60.54,-60.54"/>
    <path class="fil0 str2" d="M958.91 2499.84l-180 0m0 -121.07l180 0m-180 121.07c-33.43,0 -60.54,-27.1 -60.54,-60.54 0,-33.43 27.1,-60.54 60.54,-60.54m180 121.07c33.43,0 60.54,-27.1 60.54,-60.54 0,-33.43 -27.1,-60.54 -60.54,-60.54"/>
    <path class="fil0 str2" d="M958.91 2312.34l-180 0m0 -121.07l180 0m-180 121.07c-33.43,0 -60.54,-27.1 -60.54,-60.54 0,-33.43 27.1,-60.54 60.54,-60.54m180 121.07c33.43,0 60.54,-27.1 60.54,-60.54 0,-33.43 -27.1,-60.54 -60.54,-60.54"/>
   </g>
   <line class="fil1 str2" x1="11720.31" y1="2892.74" x2="12464.79" y2= "2892.74" />
   <line class="fil1 str2" x1="11958.98" y1="3579.84" x2="12703.45" y2= "3579.84" />
   <line class="fil1 str2" x1="1234.34" y1="5144.63" x2="1978.82" y2= "5144.63" />
   <line class="fil1 str2" x1="4665.13" y1="5403.8" x2="5393.33" y2= "5558.59" />
   <line class="fil1 str2" x1="8403.35" y1="5462.36" x2="7675.14" y2= "5617.14" />
   <path class="fil1 str2" d="M11484.75 2161.09c0,-76.09 61.69,-137.78 137.78,-137.78 76.09,0 137.78,61.69 137.78,137.78"/>
   <path class="fil1 str2" d="M12424.79 2161.09c0,-76.09 61.69,-137.78 137.78,-137.78 76.09,0 137.78,61.69 137.78,137.78"/>
   <path class="fil1 str2" d="M11723.42 4311.5c0,76.09 61.69,137.78 137.78,137.78 76.09,0 137.78,-61.69 137.78,-137.78"/>
   <path class="fil1 str2" d="M12663.46 4311.5c0,76.09 61.69,137.78 137.78,137.78 76.09,0 137.78,-61.69 137.78,-137.78"/>
   <path class="fil1 str2" d="M998.78 4412.98c0,-76.09 61.69,-137.78 137.78,-137.78 76.09,0 137.78,61.69 137.78,137.78"/>
   <path class="fil1 str2" d="M1938.82 4412.98c0,-76.09 61.69,-137.78 137.78,-137.78 76.09,0 137.78,61.69 137.78,137.78"/>
   <path class="fil1 str2" d="M7596.85 6381.78c15.82,74.43 88.98,121.94 163.41,106.12 74.43,-15.82 121.94,-88.98 106.12,-163.41"/>
   <path class="fil1 str2" d="M8516.35 6186.34c15.82,74.43 88.98,121.94 163.41,106.12 74.43,-15.82 121.94,-88.98 106.12,-163.41"/>
   <path class="fil1 str2" d="M5471.63 6323.23c-15.82,74.43 -88.98,121.94 -163.41,106.12 -74.43,-15.82 -121.94,-88.98 -106.12,-163.41"/>
   <path class="fil1 str2" d="M4552.13 6127.78c-15.82,74.43 -88.98,121.94 -163.41,106.12 -74.43,-15.82 -121.94,-88.98 -106.12,-163.41"/>
  </g>
  <line class="fil1 str2" x1="14427.38" y1="1550.76" x2="447.91" y2= "1550.76" />
 </g>
</svg>
